ffmpeg version 2.8.11-0ubuntu0.16.04.1 Copyright (c) 2000-2017 the FFmpeg developers
  built with gcc 5.4.0 (Ubuntu 5.4.0-6ubuntu1~16.04.4) 20160609
  configuration: --prefix=/usr --extra-version=0ubuntu0.16.04.1 --build-suffix=-ffmpeg --toolchain=hardened --libdir=/usr/lib/x86_64-linux-gnu --incdir=/usr/include/x86_64-linux-gnu --cc=cc --cxx=g++ --enable-gpl --enable-shared --disable-stripping --disable-decoder=libopenjpeg --disable-decoder=libschroedinger --enable-avresample --enable-avisynth --enable-gnutls --enable-ladspa --enable-libass --enable-libbluray --enable-libbs2b --enable-libcaca --enable-libcdio --enable-libflite --enable-libfontconfig --enable-libfreetype --enable-libfribidi --enable-libgme --enable-libgsm --enable-libmodplug --enable-libmp3lame --enable-libopenjpeg --enable-libopus --enable-libpulse --enable-librtmp --enable-libschroedinger --enable-libshine --enable-libsnappy --enable-libsoxr --enable-libspeex --enable-libssh --enable-libtheora --enable-libtwolame --enable-libvorbis --enable-libvpx --enable-libwavpack --enable-libwebp --enable-libx265 --enable-libxvid --enable-libzvbi --enable-openal --enable-opengl --enable-x11grab --enable-libdc1394 --enable-libiec61883 --enable-libzmq --enable-frei0r --enable-libx264 --enable-libopencv
  libavutil      54. 31.100 / 54. 31.100
  libavcodec     56. 60.100 / 56. 60.100
  libavformat    56. 40.101 / 56. 40.101
  libavdevice    56.  4.100 / 56.  4.100
  libavfilter     5. 40.101 /  5. 40.101
  libavresample   2.  1.  0 /  2.  1.  0
  libswscale      3.  1.101 /  3.  1.101
  libswresample   1.  2.101 /  1.  2.101
  libpostproc    53.  3.100 / 53.  3.100
[mp3 @ 0xaf28c0] Unknown attached picture mimetype: ('image/png', None), skipping.
[mp3 @ 0xaf28c0] Skipping 0 bytes of junk at 17522.
Input #0, mp3, from 'adam-mickiewicz-sonety-krymskie-pielgrzym.mp3':
  Metadata:
    title           : Adam Mickiewicz, Sonety krymskie, Pielgrzym
    artist          : Piotr Głowacki
    album           : Wolne Lektury
    encoder         : Lavf53.21.0
    genre           : Speech
    originator_reference: fJdDscWbSreaaaGk
    date            : 2008-10-09
    performer       : Sebastian Buttny
    album_artist    : Fundacja Nowoczesna Polska
    time_reference  : 19484692
    copyright       : 2008 Fundacja Nowoczesna Polska. Licensed to the public under http://creativecommons.org/licenses/by-sa/3.0/deed.pl verify at http://wolnelektury.pl/katalog/lektura/sonety-krymskie-pielgrzym/
    creation_time   : 0006-40-47
    encoded_by      : Pro Tools
    publisher       : Fundacja Nowoczesna Polska
  Duration: 00:01:17.09, start: 0.000000, bitrate: 65 kb/s
    Stream #0:0: Audio: mp3, 44100 Hz, mono, s16p, 64 kb/s
Output #0, null, to 'pipe:':
  Metadata:
    title           : Adam Mickiewicz, Sonety krymskie, Pielgrzym
    artist          : Piotr Głowacki
    album           : Wolne Lektury
    publisher       : Fundacja Nowoczesna Polska
    genre           : Speech
    originator_reference: fJdDscWbSreaaaGk
    date            : 2008-10-09
    performer       : Sebastian Buttny
    album_artist    : Fundacja Nowoczesna Polska
    time_reference  : 19484692
    copyright       : 2008 Fundacja Nowoczesna Polska. Licensed to the public under http://creativecommons.org/licenses/by-sa/3.0/deed.pl verify at http://wolnelektury.pl/katalog/lektura/sonety-krymskie-pielgrzym/
    encoded_by      : Pro Tools
    encoder         : Lavf56.40.101
    Stream #0:0: Audio: pcm_s16le, 44100 Hz, mono, s16, 705 kb/s
    Metadata:
      encoder         : Lavc56.60.100 pcm_s16le
Stream mapping:
  Stream #0:0 -> #0:0 (mp3 (native) -> pcm_s16le (native))
Press [q] to stop, [?] for help
[silencedetect @ 0xb05a00] silence_start: -0.00367347
[silencedetect @ 0xb05a00] silence_end: 1.0449 | silence_duration: 1.04857
[silencedetect @ 0xb05a00] silence_start: 2.08612
[silencedetect @ 0xb05a00] silence_end: 3.08245 | silence_duration: 0.996327
[silencedetect @ 0xb05a00] silence_start: 4.12367
[silencedetect @ 0xb05a00] silence_end: 5.82531 | silence_duration: 1.70163
[silencedetect @ 0xb05a00] silence_start: 6.52694
[silencedetect @ 0xb05a00] silence_end: 11.5461 | silence_duration: 5.01918
[silencedetect @ 0xb05a00] silence_start: 14.1286
[silencedetect @ 0xb05a00] silence_end: 15.3861 | silence_duration: 1.25755
[silencedetect @ 0xb05a00] silence_start: 16.9237
[silencedetect @ 0xb05a00] silence_end: 17.8939 | silence_duration: 0.970204
[silencedetect @ 0xb05a00] silence_start: 19.0396
[silencedetect @ 0xb05a00] silence_end: 21.4204 | silence_duration: 2.38082
[silencedetect @ 0xb05a00] silence_start: 24.5776
[silencedetect @ 0xb05a00] silence_end: 25.3649 | silence_duration: 0.787347
[silencedetect @ 0xb05a00] silence_start: 27.451
[silencedetect @ 0xb05a00] silence_end: 29.858 | silence_duration: 2.40694
[silencedetect @ 0xb05a00] silence_start: 30.3506
[silencedetect @ 0xb05a00] silence_end: 32.5747 | silence_duration: 2.22408
[silencedetect @ 0xb05a00] silence_start: 34.8698
[silencedetect @ 0xb05a00] silence_end: 35.5265 | silence_duration: 0.656735
[silencedetect @ 0xb05a00] silence_start: 37.9522
[silencedetect @ 0xb05a00] silence_end: 39.7322 | silence_duration: 1.78
[silencedetect @ 0xb05a00] silence_start: 43.3335
[silencedetect @ 0xb05a00] silence_end: 44.1208 | silence_duration: 0.787347
[silencedetect @ 0xb05a00] silence_start: 45.2404
[silencedetect @ 0xb05a00] silence_end: 47.6473 | silence_duration: 2.40694
[silencedetect @ 0xb05a00] silence_start: 48.3751
[silencedetect @ 0xb05a00] silence_end: 50.8082 | silence_duration: 2.43306
[silencedetect @ 0xb05a00] silence_start: 52.2935
[silencedetect @ 0xb05a00] silence_end: 55.3535 | silence_duration: 3.06
[silencedetect @ 0xb05a00] silence_start: 60.4698
[silencedetect @ 0xb05a00] silence_end: 63.1118 | silence_duration: 2.64204
[silencedetect @ 0xb05a00] silence_start: 65.4069
[silencedetect @ 0xb05a00] silence_end: 67.0302 | silence_duration: 1.62327
[silencedetect @ 0xb05a00] silence_start: 69.3253
[silencedetect @ 0xb05a00] silence_end: 71.7061 | silence_duration: 2.38082
[silencedetect @ 0xb05a00] silence_start: 74.3408
size=N/A time=00:01:17.08 bitrate=N/A    
video:0kB audio:6640kB subtitle:0kB other streams:0kB global headers:0kB muxing overhead: unknown
